<svg id="Layer_1" data-name="Layer 1" xmlns="http://www.w3.org/2000/svg" viewBox="0 0 32.97 29.28"><defs><style>.cls-1{fill:#c02529;}.cls-2{fill:#fff;}</style></defs><path class="cls-1" d="M44.18,16.43H31l-.16,0a1.19,1.19,0,0,0-.61.31h0A1.05,1.05,0,0,0,30,17h0a1,1,0,0,0-.12.32L29,22.24a.82.82,0,0,0,.05.47s0,0,0,.05l.06.08,0,.06.07.07,0,0,.09.06.05,0,.1,0,.07,0h6.27a.26.26,0,0,1,.26.32l-.49,2.73a.4.4,0,0,1-.38.31H23.92a.77.77,0,0,1-.79-.94l.44-2.42H22.48a6,6,0,0,1-6.26-5.8,6.83,6.83,0,0,1,.1-1.48l-1.64,9-.29,1.63a6,6,0,0,0,6.14,7.36l19.66,0H41a2,2,0,0,0,1.87-1.56L45.49,18A1.28,1.28,0,0,0,44.18,16.43Z" transform="translate(-14.27 -4.67)"/><path class="cls-2" d="M46.61,7.7H44.86l.06-.32a1.27,1.27,0,0,0-1.31-1.56H42V5.41a.71.71,0,0,0-.87-.73L38,5.73a1.17,1.17,0,0,0-.24.09H25.64a9.31,9.31,0,0,0-8.83,7.36l-.49,2.73a6,6,0,0,0,6.16,7.26h7.25a.77.77,0,0,1-.77-.94l.88-4.86a1.18,1.18,0,0,1,1-.92l.16,0H25.74a.76.76,0,0,1-.78-.91l.28-1.59a1.16,1.16,0,0,1,.73-.85l.1,0,0,0a1.15,1.15,0,0,1,.26,0h16a2,2,0,0,0,1.87-1.56l.06-.31H46a.93.93,0,0,0,.89-.74l.35-1.93A.61.61,0,0,0,46.61,7.7Z" transform="translate(-14.27 -4.67)"/><path class="cls-2" d="M36,28.75c-2.85-1.16-1.54-4.67-1.14-5.58h-4.2a5.84,5.84,0,0,0,4.61,6.36S39.24,30.1,36,28.75Z" transform="translate(-14.27 -4.67)"/></svg>