<svg id="SmokingGunLight" data-name="Smoking Gun" xmlns="http://www.w3.org/2000/svg" viewBox="0 0 59.25 18.35"><defs><style>.cls-1{fill:#272727;}.cls-2{fill:#fff;}</style></defs><path class="cls-1" d="M22.38,18.7a.24.24,0,0,1-.25-.29l.15-.79a.36.36,0,0,1,.35-.29h3.28a.22.22,0,0,0,.21-.17l.05-.25a.15.15,0,0,0-.15-.18H23.66a1.12,1.12,0,0,1-1.15-1.36l.1-.54a1.74,1.74,0,0,1,1.64-1.37h3.49a.25.25,0,0,1,.25.3l-.14.75a.36.36,0,0,1-.35.29H24.3a.23.23,0,0,0-.21.17L24,15.3a.15.15,0,0,0,.15.18h2.37a1.12,1.12,0,0,1,1.14,1.37l-.09.49A1.73,1.73,0,0,1,26,18.7H22.38Z" transform="translate(-0.94 -11.54)"/><path class="cls-1" d="M34.92,14.21l-.76,4.19a.37.37,0,0,1-.36.3H33a.26.26,0,0,1-.21-.09.25.25,0,0,1,0-.22L33,16.93l-1.07,1.6a.39.39,0,0,1-.31.17H30.56a.25.25,0,0,1-.26-.18l-.5-1.6-.27,1.48a.36.36,0,0,1-.35.3h-.81a.26.26,0,0,1-.26-.31l.75-4.19a.38.38,0,0,1,.36-.3h1a.25.25,0,0,1,.25.18L31.32,17a0,0,0,0,0,0,0h0l2-2.94a.38.38,0,0,1,.3-.17h1A.26.26,0,0,1,34.92,14.21Z" transform="translate(-0.94 -11.54)"/><path class="cls-1" d="M40.81,15.16l-.41,2.27a1.61,1.61,0,0,1-1.52,1.27H36.16a1,1,0,0,1-1.07-1.28l.41-2.27A1.59,1.59,0,0,1,37,13.88h2.72A1,1,0,0,1,40.81,15.16Zm-4.16,2.19a.09.09,0,0,0,.07,0h2.05a.16.16,0,0,0,.14-.12l.36-2a.08.08,0,0,0,0-.07.09.09,0,0,0-.07,0h-2a.15.15,0,0,0-.14.12l-.36,2A.11.11,0,0,0,36.65,17.35Z" transform="translate(-0.94 -11.54)"/><path class="cls-1" d="M46.58,14.14,44.34,16.3h0l1.46,2.15a.16.16,0,0,1,0,.15.18.18,0,0,1-.16.1H44.25A.27.27,0,0,1,44,18.6l-.82-1.22-.6.57a.12.12,0,0,0,0,.08l-.07.37a.37.37,0,0,1-.36.3h-.89a.26.26,0,0,1-.26-.31l.76-4.19a.36.36,0,0,1,.35-.3H43a.26.26,0,0,1,.27.31L43,15.83h0L44.86,14a.36.36,0,0,1,.25-.11H46.5A.14.14,0,0,1,46.58,14.14Z" transform="translate(-0.94 -11.54)"/><path class="cls-1" d="M48.61,14.21l-.76,4.19a.37.37,0,0,1-.36.3H46.6a.27.27,0,0,1-.21-.09.25.25,0,0,1,0-.22l.76-4.2a.37.37,0,0,1,.36-.29h.89A.26.26,0,0,1,48.61,14.21Z" transform="translate(-0.94 -11.54)"/><path class="cls-1" d="M54.41,14.21l-.76,4.19a.37.37,0,0,1-.36.3h-1a.27.27,0,0,1-.23-.11L50.64,16a0,0,0,0,0,0,0h0l-.42,2.36a.37.37,0,0,1-.36.3h-.89a.26.26,0,0,1-.26-.31l.76-4.19a.37.37,0,0,1,.36-.3h1.12a.27.27,0,0,1,.23.11l1.33,2.37h0s0,0,0,0l.39-2.18a.37.37,0,0,1,.36-.3h.88A.26.26,0,0,1,54.41,14.21Z" transform="translate(-0.94 -11.54)"/><path class="cls-1" d="M60.19,14.22l-.12.68a.38.38,0,0,1-.36.3H56.62a.14.14,0,0,0-.14.12l-.36,1.95a.11.11,0,0,0,0,.08.09.09,0,0,0,.07,0H58.1a0,0,0,0,0,0,0l.08-.46h-1a.17.17,0,0,1-.14-.07.16.16,0,0,1,0-.15l.15-.81a.24.24,0,0,1,.23-.2H59.6a.27.27,0,0,1,.21.1.29.29,0,0,1,.06.22l-.44,2.41a.37.37,0,0,1-.36.3H55.64a1,1,0,0,1-1.07-1.28l.4-2.24A1.61,1.61,0,0,1,56.5,13.9h3.42A.27.27,0,0,1,60.19,14.22Z" transform="translate(-0.94 -11.54)"/><path class="cls-2" d="M27,19.21l-.14.75a.36.36,0,0,1-.35.29H23.07a.22.22,0,0,0-.21.18l-.39,2.17a.14.14,0,0,0,.15.17h2.1a.08.08,0,0,0,.07-.05l.09-.51a.06.06,0,0,0-.05-.06H23.7a.15.15,0,0,1-.15-.17l.17-.91a.21.21,0,0,1,.21-.17h2.46a.24.24,0,0,1,.24.29l-.48,2.67a.38.38,0,0,1-.35.3H22a1.13,1.13,0,0,1-1.15-1.37l.45-2.49a1.74,1.74,0,0,1,1.65-1.37h3.8A.24.24,0,0,1,27,19.21Z" transform="translate(-0.94 -11.54)"/><path class="cls-2" d="M32.75,19.65h0l-.59,3.24a1.59,1.59,0,0,1-1.51,1.27H28.19a1.05,1.05,0,0,1-1.07-1.28l.59-3.24a.38.38,0,0,1,.36-.3h.84a.26.26,0,0,1,.26.32l-.55,3.07a.08.08,0,0,0,0,.07.08.08,0,0,0,.07,0h1.86a.15.15,0,0,0,.14-.12l.55-3.07a.38.38,0,0,1,.36-.3h.86A.27.27,0,0,1,32.75,19.65Z" transform="translate(-0.94 -11.54)"/><path class="cls-2" d="M38.51,19.67l-.76,4.19a.38.38,0,0,1-.36.3h-1a.28.28,0,0,1-.23-.12l-1.45-2.55h0l-.42,2.36a.38.38,0,0,1-.36.3H33a.26.26,0,0,1-.26-.31l.76-4.19a.36.36,0,0,1,.35-.3H35a.27.27,0,0,1,.23.11l1.33,2.38a0,0,0,0,0,0,0s0,0,0,0L37,19.65a.37.37,0,0,1,.36-.3h.88A.26.26,0,0,1,38.51,19.67Z" transform="translate(-0.94 -11.54)"/><path class="cls-1" d="M19.69,18.91H11.3a.78.78,0,0,0-.38.2h0a.7.7,0,0,0-.13.17h0a.68.68,0,0,0-.07.2l-.55,3.05a.54.54,0,0,0,0,.29,0,0,0,0,1,0,0l0,.06,0,0s0,0,.05.05,0,0,0,0l.06,0,0,0,.07,0h4a.16.16,0,0,1,.16.2L14.3,25a.24.24,0,0,1-.23.2H7a.48.48,0,0,1-.49-.59l.27-1.52H6.09A3.73,3.73,0,0,1,2.17,19.5a4.23,4.23,0,0,1,.06-.93l-1,5.66-.19,1a3.77,3.77,0,0,0,3.85,4.61l12.31,0h.52a1.25,1.25,0,0,0,1.18-1l1.63-9A.8.8,0,0,0,19.69,18.91Z" transform="translate(-0.94 -11.54)"/><path class="cls-2" d="M21.21,13.44h-1.1l0-.2a.8.8,0,0,0-.82-1h-1V12a.45.45,0,0,0-.55-.46l-2,.66-.15,0H8.07a5.82,5.82,0,0,0-5.53,4.62l-.31,1.7a3.76,3.76,0,0,0,3.86,4.55h4.54a.48.48,0,0,1-.48-.58l.55-3.05a.75.75,0,0,1,.6-.58H8.13a.48.48,0,0,1-.49-.57l.18-1a.73.73,0,0,1,.45-.53l.07,0h0a.4.4,0,0,1,.15,0h10a1.24,1.24,0,0,0,1.17-1l0-.19h1.09a.6.6,0,0,0,.56-.46l.22-1.21A.39.39,0,0,0,21.21,13.44Z" transform="translate(-0.94 -11.54)"/><path class="cls-2" d="M14.53,26.63c-1.79-.73-1-2.93-.71-3.5H11.18a3.67,3.67,0,0,0,2.89,4S16.59,27.47,14.53,26.63Z" transform="translate(-0.94 -11.54)"/></svg>